<svg viewBox="0 0 1200 1200" height="1200" width="1200" xmlns:xlink="http://www.w3.org/1999/xlink" xmlns="http://www.w3.org/2000/svg">
  <defs>
    <clipPath id="clip-path">
      <path fill="none" transform="translate(-97.718 276.455)" d="M179.239-168.414H97.718c5.7-30.816,4.388-68.025,0-108.041h81.521C174.968-236.439,173.69-199.23,179.239-168.414Z" id="路径_1140"></path>
    </clipPath>
    <clipPath id="clip-path-2">
      <path fill="none" transform="translate(1025 4617)" d="M-1025,14395.975H3127.06V-4617H-1025Z" id="路径_1139"></path>
    </clipPath>
    <clipPath id="clip-path-3">
      <path fill="none" transform="translate(-107.71 261.921)" d="M127.352-222.634A19.644,19.644,0,0,0,147-242.278a19.644,19.644,0,0,0-19.644-19.644,19.643,19.643,0,0,0-19.642,19.644A19.644,19.644,0,0,0,127.352-222.634Z" id="路径_1143"></path>
    </clipPath>
    <clipPath id="clip-path-5">
      <path fill="none" transform="translate(-238.101 142.645)" d="M534.543,77.068H282.56L238.1-142.645H576.265a11.933,11.933,0,0,1,5,1.1,11.971,11.971,0,0,1,4.083,3.086,11.992,11.992,0,0,1,2.415,4.511,11.954,11.954,0,0,1,.307,5.108L546.344,66.978a11.89,11.89,0,0,1-11.8,10.09ZM285.3,73.744H534.543a8.577,8.577,0,0,0,8.516-7.284l41.724-195.822a8.624,8.624,0,0,0-.221-3.685,8.632,8.632,0,0,0-1.743-3.257,8.619,8.619,0,0,0-2.948-2.227,8.619,8.619,0,0,0-3.607-.791H242.136Z" id="路径_1250"></path>
    </clipPath>
    <clipPath id="clip-path-7">
      <path fill="none" transform="translate(-204.451 166.468)" d="M222.731-146.525c10.1,0,18.282-4.466,18.282-9.971s-8.185-9.971-18.282-9.971-18.28,4.463-18.28,9.971S212.636-146.525,222.731-146.525Z" id="路径_1267"></path>
    </clipPath>
  </defs>
  <g transform="translate(94 149)" id="H5商城">
    <path fill="#8b93a0" transform="translate(-94 -149)" d="M1,1V1199H1199V1H1M0,0H1200V1200H0Z" id="_1"></path>
    <path stroke-dasharray="5 5" stroke-width="1" stroke="#ffb906" fill="none" transform="translate(121.102 118.939)" d="M15.138,0H839.062A15.138,15.138,0,0,1,854.2,15.138v709.31a15.138,15.138,0,0,1-15.138,15.138H15.138A15.138,15.138,0,0,1,0,724.448V15.138A15.138,15.138,0,0,1,15.138,0Z" id="line"></path>
    <g transform="translate(77.851 0)" id="block">
      <path fill-rule="evenodd" stroke-width="1" stroke="#eee" fill="#fff" transform="translate(-17.837 411)" d="M63.251-411H928.263a43.251,43.251,0,0,1,43.251,43.251V216.134a43.251,43.251,0,0,1-43.251,43.251H63.251A43.251,43.251,0,0,1,20,216.134V-367.749A43.251,43.251,0,0,1,63.251-411Z" id="bg"></path>
      <path fill-rule="evenodd" fill="#efefef" transform="translate(-19 411)" d="M62.251-411H929.426a43.251,43.251,0,0,1,43.251,43.251v42.386H19v-42.386A43.251,43.251,0,0,1,62.251-411Z" id="bg_title"></path>
      <g transform="translate(821.762 32.438)" id="dot">
        <path opacity="0.3" fill-rule="evenodd" fill="#2968ff" transform="translate(-399 396)" d="M410.678-396a11.678,11.678,0,0,1,11.678,11.678,11.678,11.678,0,0,1-11.678,11.678A11.678,11.678,0,0,1,399-384.322,11.678,11.678,0,0,1,410.678-396Zm36.979,0a11.678,11.678,0,0,1,11.678,11.678,11.678,11.678,0,0,1-11.678,11.678,11.678,11.678,0,0,1-11.678-11.678A11.678,11.678,0,0,1,447.657-396Z" id="路径_1292"></path>
        <path fill-rule="evenodd" fill="#2968ff" transform="translate(-360.288 396)" d="M443.978-396a11.678,11.678,0,0,1,11.678,11.678,11.678,11.678,0,0,1-11.678,11.678A11.678,11.678,0,0,1,432.3-384.322,11.678,11.678,0,0,1,443.978-396Z" id="路径_1295"></path>
      </g>
    </g>
    <path fill="#f3f3f3" transform="translate(65.102 461.939)" d="M661.284,158.626H64.881a8.289,8.289,0,0,1-7.642-2.873,5.662,5.662,0,0,1,0-7.068,8.3,8.3,0,0,1,7.642-2.872h596.4a8.277,8.277,0,0,1,7.636,2.872,5.66,5.66,0,0,1,0,7.068,8.1,8.1,0,0,1-6.432,2.954,8.509,8.509,0,0,1-1.2-.08Zm-101.411-25.87a4.228,4.228,0,0,0-1.841,0H260.743c-3.423-.8-5.79-3.455-5.79-6.483s2.366-5.689,5.79-6.492H558.026a4.15,4.15,0,0,0,1.849,0H666.518c3.428.8,5.8,3.46,5.8,6.492s-2.378,5.685-5.8,6.483Zm-435.347,0c-3.432-.8-5.811-3.455-5.812-6.483s2.378-5.688,5.812-6.492H234c3.434.8,5.812,3.462,5.812,6.492s-2.381,5.682-5.812,6.483Zm-62.82,0c-3.369-.8-5.7-3.455-5.706-6.483s2.335-5.688,5.706-6.492H97.87c3.371.8,5.706,3.462,5.706,6.492s-2.337,5.682-5.706,6.483Zm568.74-23.788c-3.37-.8-5.705-3.457-5.7-6.485s2.33-5.687,5.7-6.49h36.169c3.372.8,5.708,3.461,5.707,6.49s-2.335,5.685-5.707,6.485Zm-132.92,0a4.308,4.308,0,0,0-1.848,0H195.868c-3.422-.8-5.791-3.456-5.791-6.485s2.369-5.687,5.791-6.49h299.8a4.2,4.2,0,0,0,1.848,0h106.3c3.423.8,5.8,3.459,5.8,6.49s-2.375,5.685-5.8,6.485Zm-435.7,0c-3.443-.8-5.831-3.457-5.831-6.485s2.387-5.685,5.831-6.49H169.1c3.447.8,5.837,3.459,5.837,6.49s-2.39,5.686-5.837,6.485ZM909.971,85.1H748.232a8.29,8.29,0,0,1-7.634-2.874,5.654,5.654,0,0,1,0-7.063,8.3,8.3,0,0,1,7.634-2.876H909.971a8.307,8.307,0,0,1,7.64,2.876,5.654,5.654,0,0,1,0,7.063,8.142,8.142,0,0,1-6.443,2.957,8.991,8.991,0,0,1-1.188-.084Zm-412.81.082a4.069,4.069,0,0,0-1.841,0H198.03c-3.419-.808-5.79-3.461-5.79-6.487s2.369-5.682,5.79-6.488H495.32a4.176,4.176,0,0,0,1.841,0H603.8c3.427.8,5.8,3.458,5.8,6.488s-2.378,5.684-5.8,6.487Zm-435.33,0C58.389,84.375,56,81.722,56,78.694s2.387-5.684,5.831-6.488H169.108c3.444.8,5.831,3.46,5.831,6.488s-2.389,5.681-5.831,6.487ZM810.064,61.393c-3.443-.8-5.829-3.459-5.828-6.488s2.384-5.685,5.828-6.487H917.347c3.444.8,5.83,3.458,5.828,6.487s-2.384,5.685-5.828,6.488Zm-65,0c-3.371-.8-5.707-3.459-5.706-6.488s2.334-5.685,5.706-6.487H781.23c3.371.8,5.708,3.458,5.706,6.487s-2.334,5.685-5.706,6.488ZM561.91,59.231a4.362,4.362,0,0,0-1.846,0H262.975c-3.671-.469-6.243-3.341-5.812-6.49-.429-3.184,2.215-6.072,5.936-6.485H560.2a4.4,4.4,0,0,0,1.841,0H668.618c3.673.462,6.251,3.335,5.819,6.485.428,3.186-2.217,6.076-5.94,6.49Zm-435.161,0c-3.679-.469-6.257-3.341-5.825-6.49-.433-3.148,2.147-6.02,5.825-6.485H236.1c3.681.462,6.264,3.335,5.832,6.485.432,3.151-2.15,6.025-5.832,6.49Zm-62.827,0c-3.607-.469-6.136-3.341-5.712-6.49-.424-3.148,2.105-6.02,5.712-6.485H99.972c3.608.464,6.14,3.336,5.719,6.485.427,3.142-2.088,6.013-5.687,6.49ZM632.669,35.443c-3.608-.471-6.136-3.342-5.715-6.491-.419-3.147,2.11-6.015,5.715-6.484h36.054c3.606.467,6.135,3.337,5.715,6.484.423,3.149-2.106,6.022-5.715,6.491Zm-135.366,0a4.027,4.027,0,0,0-1.846,0H195.935c-3.667-.473-6.237-3.343-5.812-6.491-.423-3.146,2.147-6.013,5.812-6.484h299.4a4.054,4.054,0,0,0,1.837,0H603.749c3.667.469,6.238,3.337,5.812,6.484.428,3.149-2.143,6.02-5.812,6.491Zm-435.408,0c-3.695-.472-6.282-3.344-5.848-6.491-.431-3.145,2.156-6.014,5.848-6.484H169.035c3.695.467,6.286,3.337,5.855,6.484.439,3.122-2.1,5.983-5.757,6.491ZM663.514,11.631H66.976c-4.52.265-8.449-2.619-8.813-6.469.368-3.848,4.3-6.729,8.813-6.465H663.514c4.517-.264,8.442,2.618,8.807,6.465-.344,3.664-3.93,6.488-8.241,6.493q-.277,0-.553-.024ZM562.009-14.3a4.127,4.127,0,0,0-1.842,0H262.977c-3.671-.471-6.243-3.341-5.814-6.488-.432-3.148,2.142-6.019,5.814-6.488H560.166a4.3,4.3,0,0,0,1.842,0H668.616c3.675.466,6.253,3.338,5.82,6.488.429,3.148-2.147,6.019-5.82,6.488Zm-435.26,0c-3.678-.471-6.255-3.341-5.825-6.488-.433-3.148,2.146-6.019,5.825-6.488H236.1c3.682.466,6.265,3.338,5.832,6.488.429,3.148-2.151,6.019-5.832,6.488Zm-62.83,0c-3.6-.471-6.13-3.341-5.709-6.488-.425-3.148,2.1-6.019,5.709-6.488H99.982c3.606.468,6.134,3.34,5.709,6.488.421,3.147-2.1,6.017-5.709,6.488ZM740.864-35.921c-3.443-.809-5.827-3.462-5.829-6.488s2.386-5.679,5.829-6.488H848.138c3.447.8,5.836,3.459,5.836,6.488s-2.388,5.683-5.836,6.488ZM632.669-38.083c-3.605-.469-6.133-3.339-5.715-6.487-.423-3.15,2.107-6.022,5.715-6.488h36.053c3.61.464,6.141,3.338,5.715,6.488.422,3.149-2.108,6.02-5.715,6.487Zm-135.394,0a4.085,4.085,0,0,0-1.84,0h-299.5c-3.666-.471-6.237-3.339-5.813-6.487-.428-3.149,2.145-6.02,5.813-6.488H495.4a4.214,4.214,0,0,0,1.838,0H603.747c3.672.464,6.247,3.338,5.813,6.488.429,3.149-2.144,6.02-5.813,6.487H497.275Zm-435.379,0c-3.692-.47-6.279-3.34-5.848-6.487-.436-3.148,2.153-6.021,5.848-6.488h107.14c3.7.464,6.292,3.338,5.855,6.488.437,3.121-2.1,5.98-5.757,6.487ZM803.579-59.708c-3.443-.806-5.828-3.46-5.831-6.488s2.387-5.684,5.831-6.487H910.857c3.444.8,5.831,3.458,5.831,6.487s-2.388,5.683-5.831,6.488Zm-62.833,0c-3.373-.808-5.709-3.462-5.711-6.488s2.337-5.682,5.711-6.487h36.147c3.377.8,5.717,3.458,5.717,6.487s-2.342,5.683-5.717,6.488Zm-79.492-4.4H64.879a8.971,8.971,0,0,1-1.188.077,8.122,8.122,0,0,1-6.447-2.959,5.631,5.631,0,0,1,0-7.058,8.284,8.284,0,0,1,7.636-2.879H661.284a8.282,8.282,0,0,1,7.636,2.879,5.645,5.645,0,0,1,0,7.058,8.11,8.11,0,0,1-6.445,2.959,8.959,8.959,0,0,1-1.191-.078ZM874.818-85.659c-3.371-.8-5.707-3.463-5.706-6.494s2.336-5.683,5.706-6.481h36.164c3.369.8,5.7,3.454,5.706,6.481s-2.336,5.687-5.706,6.494Zm-133.953,0c-3.444-.809-5.828-3.465-5.829-6.494s2.387-5.679,5.829-6.481H848.138c3.447.8,5.837,3.453,5.836,6.481s-2.388,5.689-5.836,6.494ZM559.875-87.821a4.019,4.019,0,0,0-1.843,0H260.75c-3.424-.8-5.8-3.456-5.8-6.484s2.37-5.689,5.8-6.491H558.032a4.18,4.18,0,0,0,1.843,0h106.65c3.426.8,5.8,3.46,5.8,6.491s-2.373,5.683-5.8,6.484Zm-435.349,0c-3.433-.8-5.812-3.456-5.812-6.484s2.377-5.689,5.812-6.491H234c3.436.8,5.816,3.46,5.812,6.491s-2.379,5.683-5.812,6.484Zm-62.819,0c-3.37-.8-5.707-3.456-5.707-6.484s2.334-5.689,5.707-6.491H97.875c3.37.8,5.7,3.462,5.7,6.491s-2.333,5.681-5.7,6.484Zm568.745-25.95c-3.368-.8-5.7-3.452-5.706-6.479s2.334-5.69,5.706-6.5h36.164c3.373.8,5.709,3.464,5.706,6.5s-2.336,5.681-5.706,6.479Zm-132.9,0a4.143,4.143,0,0,0-1.847,0H195.868c-3.419-.8-5.791-3.452-5.791-6.479s2.369-5.69,5.791-6.5h299.8a4.094,4.094,0,0,0,1.847,0h106.3c3.422.806,5.792,3.464,5.792,6.5s-2.373,5.68-5.792,6.479Zm-435.72,0c-3.443-.8-5.831-3.452-5.831-6.479s2.384-5.692,5.831-6.5H169.1c3.448.8,5.837,3.463,5.837,6.5s-2.392,5.682-5.837,6.479Zm674.442-22.417a5.659,5.659,0,0,1,0-7.066,8.274,8.274,0,0,1,7.626-2.875H905.647a8.3,8.3,0,0,1,7.639,2.875,5.66,5.66,0,0,1,0,7.066,8.128,8.128,0,0,1-6.445,2.95,8.409,8.409,0,0,1-1.194-.077H743.9a8.707,8.707,0,0,1-1.194.08,8.084,8.084,0,0,1-6.393-2.961ZM497.134-137.56a4.31,4.31,0,0,0-1.847,0H198.042c-3.426-.8-5.8-3.456-5.8-6.487s2.377-5.687,5.8-6.488H495.326a4,4,0,0,0,1.847,0H603.805c3.425.8,5.8,3.458,5.8,6.488s-2.377,5.687-5.8,6.487Zm-435.3,0c-3.447-.8-5.838-3.456-5.838-6.487s2.392-5.687,5.838-6.488H169.115c3.442.8,5.825,3.461,5.825,6.488s-2.382,5.684-5.825,6.487Zm741.741-19.463c-3.443-.806-5.828-3.46-5.831-6.488s2.386-5.684,5.831-6.488H910.857c3.445.8,5.831,3.459,5.831,6.488s-2.388,5.681-5.831,6.488Zm-62.844,0c-3.367-.807-5.7-3.461-5.7-6.488s2.33-5.684,5.7-6.488H776.9c3.371.8,5.707,3.459,5.707,6.488s-2.338,5.681-5.707,6.488ZM561.916-163.51a4.146,4.146,0,0,0-1.848,0H262.975c-3.669-.469-6.241-3.339-5.812-6.485-.426-3.186,2.219-6.074,5.942-6.49H560.193a4.1,4.1,0,0,0,1.848,0H668.617c3.675.466,6.252,3.34,5.819,6.49.429,3.184-2.217,6.073-5.94,6.485Zm-435.161,0c-3.678-.468-6.258-3.337-5.832-6.485-.432-3.15,2.15-6.023,5.832-6.49H236.111c3.678.471,6.253,3.344,5.819,6.49.431,3.145-2.144,6.014-5.819,6.485Zm-62.827,0c-3.608-.466-6.139-3.337-5.719-6.485-.426-3.151,2.107-6.025,5.719-6.49H99.973c3.611.467,6.142,3.34,5.719,6.49.426,3.14-2.089,6.008-5.687,6.485Zm810.89-19.463c-3.37-.8-5.706-3.456-5.706-6.485s2.335-5.687,5.706-6.49h36.164c3.37.8,5.7,3.461,5.706,6.49s-2.337,5.682-5.706,6.485Zm-136.12,0c-3.441-.8-5.825-3.458-5.825-6.485s2.383-5.685,5.825-6.49h107.29c3.443.805,5.827,3.462,5.825,6.49s-2.384,5.681-5.825,6.485ZM632.668-187.3c-3.6-.47-6.13-3.338-5.714-6.485-.418-3.149,2.109-6.019,5.714-6.49h36.056c3.608.467,6.137,3.34,5.714,6.49.422,3.148-2.108,6.019-5.714,6.485Zm-135.4,0a4.157,4.157,0,0,0-1.839,0H195.935c-3.666-.468-6.237-3.337-5.812-6.485-.428-3.149,2.144-6.021,5.812-6.49H495.34a4.183,4.183,0,0,0,1.843,0H603.751c3.667.471,6.237,3.342,5.811,6.49.423,3.147-2.147,6.015-5.811,6.485ZM61.9-187.3c-3.695-.466-6.286-3.337-5.855-6.485-.434-3.15,2.158-6.023,5.855-6.49H169.048c3.693.471,6.278,3.344,5.842,6.49.44,3.12-2.1,5.979-5.751,6.485ZM740.859-206.76c-3.44-.807-5.823-3.462-5.825-6.49s2.383-5.683,5.825-6.486H848.143c3.443.8,5.831,3.457,5.831,6.486s-2.39,5.683-5.831,6.49Zm-77.351-4.349H66.969c-4.516.261-8.44-2.619-8.807-6.463.368-3.845,4.289-6.727,8.807-6.472H663.508c4.52-.256,8.444,2.626,8.813,6.472-.348,3.662-3.935,6.484-8.247,6.487q-.265-.008-.527-.039Zm140.138-21.6c-3.693-.466-6.283-3.338-5.85-6.486-.435-3.149,2.155-6.023,5.85-6.49H910.791c3.692.471,6.28,3.341,5.85,6.49.427,3.147-2.16,6.015-5.85,6.486Zm-62.857,0c-3.6-.471-6.13-3.34-5.709-6.486-.422-3.147,2.1-6.018,5.709-6.49h36.06c3.607.471,6.135,3.341,5.715,6.49.417,3.147-2.11,6.015-5.715,6.486Zm-178.822-2.163a4.208,4.208,0,0,0-1.849,0H262.983c-3.673-.47-6.248-3.341-5.821-6.49-.428-3.148,2.148-6.018,5.821-6.485H560.16a4.1,4.1,0,0,0,1.849,0H668.616c3.674.465,6.251,3.336,5.821,6.485.431,3.15-2.145,6.023-5.821,6.49Zm-435.213,0c-3.68-.47-6.26-3.341-5.832-6.49-.428-3.148,2.153-6.017,5.832-6.485H236.112c3.676.47,6.251,3.34,5.819,6.485.431,3.146-2.142,6.017-5.819,6.49Zm-62.83,0c-3.608-.468-6.137-3.341-5.715-6.49-.423-3.149,2.108-6.02,5.715-6.485H99.978c3.606.466,6.136,3.337,5.715,6.485.42,3.149-2.109,6.02-5.715,6.49ZM874.871-256.5c-3.606-.471-6.133-3.341-5.714-6.49-.418-3.148,2.11-6.016,5.714-6.485h36.056c3.6.468,6.133,3.337,5.714,6.485.418,3.149-2.109,6.019-5.714,6.49Zm-133.941,0c-3.693-.472-6.28-3.343-5.848-6.49-.432-3.146,2.156-6.017,5.848-6.485H848.167c3.655.506,6.193,3.364,5.759,6.485.435,3.122-2.1,5.982-5.759,6.49Zm-108.262-4.325c-3.605-.471-6.133-3.341-5.714-6.488-.415-3.147,2.111-6.014,5.714-6.487h36.056c3.606.468,6.135,3.339,5.714,6.487.423,3.149-2.106,6.021-5.714,6.488Zm-135.421,0a4.248,4.248,0,0,0-1.846,0H195.936c-3.669-.469-6.241-3.34-5.813-6.488-.424-3.147,2.146-6.016,5.813-6.487H495.408a4.031,4.031,0,0,0,1.844,0h106.5c3.667.47,6.238,3.339,5.813,6.487.428,3.148-2.144,6.019-5.813,6.488Zm-435.345,0c-3.7-.467-6.288-3.34-5.855-6.488-.43-3.148,2.16-6.018,5.855-6.487H169.047c3.691.472,6.276,3.342,5.842,6.487.444,3.121-2.093,5.983-5.75,6.488Zm673.132-25.949c.368-3.857,4.31-6.742,8.84-6.471H905.71c4.52-.258,8.445,2.624,8.814,6.471-.37,3.845-4.3,6.724-8.814,6.464H743.875q-.3.026-.592.022c-4.3-.024-7.866-2.847-8.207-6.5ZM71.578-299.749c-8.6,0-15.574-6.131-15.578-13.693v-13.7c0-7.562,6.976-13.691,15.578-13.693H330.2c8.6,0,15.578,6.13,15.578,13.693v13.7c0,7.563-6.975,13.693-15.578,13.693Zm732.067-6.488c-3.693-.468-6.282-3.339-5.85-6.487-.431-3.148,2.157-6.019,5.85-6.488H910.791c3.69.473,6.276,3.342,5.85,6.488.427,3.147-2.16,6.015-5.85,6.487Zm-62.856,0c-3.6-.473-6.129-3.341-5.709-6.487-.419-3.145,2.105-6.014,5.709-6.488H776.85c3.6.473,6.131,3.342,5.715,6.488.417,3.147-2.11,6.015-5.715,6.487Zm134.083-23.788c-3.606-.466-6.135-3.336-5.714-6.484-.417-3.148,2.109-6.019,5.714-6.491h36.056c3.605.473,6.132,3.343,5.714,6.491.42,3.148-2.109,6.017-5.714,6.484Zm-133.941,0c-3.693-.467-6.282-3.337-5.848-6.484-.43-3.147,2.156-6.018,5.848-6.491H848.167c3.656.511,6.192,3.369,5.759,6.491.436,3.121-2.1,5.98-5.759,6.484Z" id="block-2"></path>
    <g transform="translate(0 110.289)" id="组_4050">
      <path fill="#e6e6e6" transform="translate(0 347)" d="M356.424-177.134H352.5V-284.727a62.277,62.277,0,0,0-4.74-23.831,62.265,62.265,0,0,0-13.5-20.2,62.289,62.289,0,0,0-20.2-13.5A62.281,62.281,0,0,0,290.225-347H62.272a62.272,62.272,0,0,0-23.831,4.74,62.269,62.269,0,0,0-20.2,13.5,62.27,62.27,0,0,0-13.5,20.2A62.272,62.272,0,0,0,0-284.727V305.539a62.273,62.273,0,0,0,62.272,62.272H290.225A62.272,62.272,0,0,0,352.5,305.539V-100.547h3.927Z" id="路径_1071"></path>
      <path fill="#fff" transform="translate(9.237 355.709)" d="M283.5-339.508H253.744a22.087,22.087,0,0,1,1.522,10.6,22.109,22.109,0,0,1-3.642,10.069,22.114,22.114,0,0,1-7.947,7.175,22.1,22.1,0,0,1-10.389,2.6H102.7a22.093,22.093,0,0,1-10.388-2.6,22.1,22.1,0,0,1-7.948-7.175,22.1,22.1,0,0,1-3.641-10.069,22.094,22.094,0,0,1,1.521-10.6H54.45a46.506,46.506,0,0,0-17.8,3.54,46.5,46.5,0,0,0-15.087,10.081A46.5,46.5,0,0,0,11.486-310.8,46.5,46.5,0,0,0,7.946-293V296.4A46.5,46.5,0,0,0,54.45,342.9H283.5A46.507,46.507,0,0,0,330,296.4V-293a46.492,46.492,0,0,0-3.54-17.8,46.471,46.471,0,0,0-10.08-15.087A46.512,46.512,0,0,0,301.3-335.968,46.5,46.5,0,0,0,283.5-339.508Z" id="路径_1074"></path>
      <g clip-path="url(#clip-path)" transform="translate(211.318 152.555)" id="组_3363">
        <g clip-path="url(#clip-path-2)" transform="translate(-2427.912 -9386.563)" id="组_3362">
          <path fill="#e6e6e6" transform="translate(2324.382 9657.206)" d="M92.718-281.455H195.864v129.666H92.718Z" id="路径_1138"></path>
        </g>
      </g>
      <g clip-path="url(#clip-path-3)" transform="translate(232.926 183.985)" id="组_3365">
        <g clip-path="url(#clip-path-2)" transform="translate(-2449.521 -9417.993)" id="组_3364">
          <path fill="#fff" transform="translate(2335.998 9674.103)" d="M102.71-266.921h60.912v60.913H102.71Z" id="路径_1141"></path>
        </g>
      </g>
      <g transform="translate(44.346 136.02)" id="组_4046">
        <path fill="#e6e6e6" transform="translate(6.853 284.101)" d="M59.53-284.1H45.854a1.812,1.812,0,0,0-1.282.531,1.812,1.812,0,0,0-.531,1.282v6A1.812,1.812,0,0,0,44.573-275a1.813,1.813,0,0,0,1.282.531h2.266v8.994h9.143v-8.994H59.53A1.814,1.814,0,0,0,60.812-275a1.813,1.813,0,0,0,.531-1.282v-6a1.813,1.813,0,0,0-.531-1.282A1.813,1.813,0,0,0,59.53-284.1Z" id="路径_1077"></path>
        <path fill="#e6e6e6" transform="translate(0.085 289.035)" d="M80-234.1a70.308,70.308,0,0,1-12.232-41.686,1.483,1.483,0,0,0-.315-.946,1.483,1.483,0,0,0-.843-.533v-2.594H52.163v2.558h-.2a1.483,1.483,0,0,0-1.047.435,1.481,1.481,0,0,0-.433,1.049c0,.036,0,.072,0,.108q1.707,23.793-11.527,42.673a4.084,4.084,0,0,0-.739,2.475L39.8-181.706a4.229,4.229,0,0,0,1.277,2.883,4.226,4.226,0,0,0,2.916,1.2H76.663a4.227,4.227,0,0,0,2.942-1.224,4.232,4.232,0,0,0,1.253-2.93l.609-47.431A8.561,8.561,0,0,0,80-234.1Z" id="路径_1080"></path>
        <path fill="#fff" transform="translate(2.907 322.358)" d="M72-251.193H43.567a2.922,2.922,0,0,0-1.219.267,2.919,2.919,0,0,0-1,.752,2.925,2.925,0,0,0-.591,1.1,2.918,2.918,0,0,0-.078,1.246l4.3,27.932H69.652l5.219-27.838a2.921,2.921,0,0,0-.043-1.271,2.918,2.918,0,0,0-.58-1.132,2.919,2.919,0,0,0-1.006-.778A2.919,2.919,0,0,0,72-251.193Z" id="路径_1083"></path>
        <path fill="#e6e6e6" transform="translate(44.438 289.294)" d="M157.892-171.6H76.371c5.7-30.814,4.388-68.023,0-108.039h81.52C153.621-239.618,152.345-202.409,157.892-171.6Z" id="路径_1128"></path>
        <path fill="#fff" transform="translate(56.054 306.19)" d="M106.007-225.815a19.641,19.641,0,0,0,19.643-19.643A19.642,19.642,0,0,0,106.007-265.1a19.644,19.644,0,0,0-19.644,19.644A19.643,19.643,0,0,0,106.007-225.815Z" id="路径_1131"></path>
        <path fill="#e6e6e6" transform="translate(69.254 292.99)" d="M179.239-168.414H97.718c5.7-30.816,4.388-68.025,0-108.041h81.521C174.968-236.439,173.69-199.23,179.239-168.414Z" id="路径_1152"></path>
        <path fill="#e6e6e6" transform="translate(80.87 309.886)" d="M127.352-222.634A19.644,19.644,0,0,0,147-242.278a19.644,19.644,0,0,0-19.644-19.644,19.643,19.643,0,0,0-19.642,19.644A19.644,19.644,0,0,0,127.352-222.634Z" id="路径_1155"></path>
        <path fill="#e6e6e6" transform="translate(-20.507 344.206)" d="M20.507-202.933H287.66V-232.4H20.507Z" id="路径_1157"></path>
        <path fill="#e6e6e6" transform="translate(69.254 290.35)" d="M179.239-170.686H97.718c5.7-30.814,4.388-68.024,0-108.041h81.521C174.968-238.71,173.69-201.5,179.239-170.686Z" id="路径_1146"></path>
        <path fill="#fff" transform="translate(80.87 307.246)" d="M127.352-224.9A19.644,19.644,0,0,0,147-244.549a19.644,19.644,0,0,0-19.644-19.644,19.643,19.643,0,0,0-19.642,19.644A19.644,19.644,0,0,0,127.352-224.9Z" id="路径_1149"></path>
      </g>
      <g transform="translate(44.346 282.366)" id="组_4047">
        <path fill="#e6e6e6" transform="translate(88.694 216.428)" d="M129.928-216.428H116.252a1.819,1.819,0,0,0-1.282.53,1.819,1.819,0,0,0-.53,1.282v6a1.815,1.815,0,0,0,.53,1.282,1.819,1.819,0,0,0,1.282.53h2.266v9h9.143v-9h2.266a1.815,1.815,0,0,0,1.282-.53,1.817,1.817,0,0,0,.532-1.282v-6a1.821,1.821,0,0,0-.532-1.282A1.815,1.815,0,0,0,129.928-216.428Z" id="路径_1086"></path>
        <path fill="#e6e6e6" transform="translate(81.926 221.362)" d="M150.394-166.425a70.31,70.31,0,0,1-12.231-41.687,1.477,1.477,0,0,0-.314-.945,1.492,1.492,0,0,0-.843-.534v-2.593H122.562v2.556h-.2a1.5,1.5,0,0,0-.567.115,1.475,1.475,0,0,0-.482.322,1.506,1.506,0,0,0-.32.48,1.507,1.507,0,0,0-.112.569c0,.035,0,.071,0,.108q1.706,23.79-11.526,42.673a4.076,4.076,0,0,0-.74,2.474l1.579,48.854a4.228,4.228,0,0,0,1.278,2.883,4.222,4.222,0,0,0,2.915,1.2h32.669A4.232,4.232,0,0,0,150-111.176a4.223,4.223,0,0,0,1.252-2.928l.61-47.433A8.556,8.556,0,0,0,150.394-166.425Z" id="路径_1089"></path>
        <path fill="#fff" transform="translate(84.748 254.685)" d="M142.4-183.52H113.966a2.929,2.929,0,0,0-1.22.266,2.911,2.911,0,0,0-1,.753,2.919,2.919,0,0,0-.593,1.1,2.956,2.956,0,0,0-.078,1.246l4.3,27.931H140.05l5.22-27.838a2.959,2.959,0,0,0-.043-1.269,2.933,2.933,0,0,0-.58-1.131,2.921,2.921,0,0,0-1.006-.779A2.9,2.9,0,0,0,142.4-183.52Z" id="路径_1092"></path>
        <path fill="#e6e6e6" transform="translate(4.309 220.036)" d="M123.374-105.284H41.853c5.7-30.814,4.388-68.025,0-108.04h81.521C119.1-173.309,117.827-136.1,123.374-105.284Z" id="路径_1134"></path>
        <path fill="#fff" transform="translate(15.925 236.933)" d="M71.489-159.5a19.644,19.644,0,0,0,19.644-19.644A19.644,19.644,0,0,0,71.489-198.79a19.644,19.644,0,0,0-19.644,19.642A19.644,19.644,0,0,0,71.489-159.5Z" id="路径_1137"></path>
        <path fill="#e6e6e6" transform="translate(-20.507 276.533)" d="M20.507-135.262H287.66v-29.464H20.507Z" id="路径_1159"></path>
      </g>
      <g transform="translate(44.346 432.64)" id="组_4048">
        <path fill="#e6e6e6" transform="translate(0.894 177.373)" d="M46.263-120.758H39.776a.865.865,0,0,0-.608.251.863.863,0,0,0-.252.61v2.846a.855.855,0,0,0,.252.608.858.858,0,0,0,.608.253h1.075v4.267h4.337v-4.267h1.075a.857.857,0,0,0,.608-.253.855.855,0,0,0,.252-.608V-119.9a.864.864,0,0,0-.252-.61A.864.864,0,0,0,46.263-120.758Z" id="路径_1095"></path>
        <path fill="#e6e6e6" transform="translate(-2.316 179.713)" d="M55.97-97.04a33.352,33.352,0,0,1-5.8-19.774.7.7,0,0,0-.149-.448.7.7,0,0,0-.4-.253v-1.23H42.768v1.213h-.095a.677.677,0,0,0-.269.054.693.693,0,0,0-.228.151.739.739,0,0,0-.152.229.7.7,0,0,0-.053.268q0,.026,0,.052a30.435,30.435,0,0,1-5.468,20.241,1.942,1.942,0,0,0-.351,1.174L36.9-72.188a2.01,2.01,0,0,0,.606,1.369,2,2,0,0,0,1.383.567h15.5a2.008,2.008,0,0,0,1.4-.58,2.008,2.008,0,0,0,.595-1.391l.289-22.5A4.059,4.059,0,0,0,55.97-97.04Z" id="路径_1098"></path>
        <path fill="#fff" transform="translate(-0.811 195.961)" d="M37.449-97.375H52.235v-7.394H37.449Z" id="路径_1100"></path>
        <path fill="#e6e6e6" transform="translate(17.128 177.373)" d="M60.227-120.758H53.74a.865.865,0,0,0-.608.251.863.863,0,0,0-.252.61v2.846a.855.855,0,0,0,.252.608.858.858,0,0,0,.608.253h1.075v4.267h4.337v-4.267h1.075a.857.857,0,0,0,.608-.253.855.855,0,0,0,.252-.608V-119.9a.864.864,0,0,0-.252-.61A.864.864,0,0,0,60.227-120.758Z" id="路径_1103"></path>
        <path fill="#e6e6e6" transform="translate(13.918 179.713)" d="M69.934-97.04a33.352,33.352,0,0,1-5.8-19.774.7.7,0,0,0-.149-.448.7.7,0,0,0-.4-.253v-1.23H56.732v1.213h-.095a.676.676,0,0,0-.269.054.693.693,0,0,0-.228.151.735.735,0,0,0-.152.229.7.7,0,0,0-.053.268q0,.026,0,.052A30.435,30.435,0,0,1,50.47-96.536a1.942,1.942,0,0,0-.351,1.174l.749,23.174a2.01,2.01,0,0,0,.606,1.369,2,2,0,0,0,1.383.567h15.5a2.008,2.008,0,0,0,1.4-.58,2.008,2.008,0,0,0,.595-1.391l.289-22.5A4.059,4.059,0,0,0,69.934-97.04Z" id="路径_1106"></path>
        <path fill="#fff" transform="translate(15.423 195.961)" d="M51.413-97.375H66.2v-7.394H51.413Z" id="路径_1108"></path>
        <path fill="#e6e6e6" transform="translate(33.361 177.373)" d="M74.191-120.758H67.7a.864.864,0,0,0-.608.251.863.863,0,0,0-.252.61v2.846a.855.855,0,0,0,.252.608.857.857,0,0,0,.608.253h1.075v4.267h4.337v-4.267h1.075a.857.857,0,0,0,.608-.253.855.855,0,0,0,.252-.608V-119.9a.863.863,0,0,0-.252-.61A.864.864,0,0,0,74.191-120.758Z" id="路径_1111"></path>
        <path fill="#e6e6e6" transform="translate(30.151 179.713)" d="M83.9-97.04a33.352,33.352,0,0,1-5.8-19.774.7.7,0,0,0-.149-.448.7.7,0,0,0-.4-.253v-1.23H70.7v1.213H70.6a.676.676,0,0,0-.269.054.691.691,0,0,0-.228.151.736.736,0,0,0-.152.229.7.7,0,0,0-.053.268q0,.026,0,.052a30.434,30.434,0,0,1-5.468,20.241,1.944,1.944,0,0,0-.351,1.174l.749,23.174a2.009,2.009,0,0,0,.605,1.369,2,2,0,0,0,1.383.567h15.5a2.008,2.008,0,0,0,1.4-.58,2.007,2.007,0,0,0,.594-1.391l.289-22.5A4.057,4.057,0,0,0,83.9-97.04Z" id="路径_1114"></path>
        <path fill="#fff" transform="translate(31.656 195.961)" d="M65.377-97.375H80.163v-7.394H65.377Z" id="路径_1116"></path>
        <path fill="#e6e6e6" transform="translate(75.921 146.938)" d="M118.943-146.938H105.267a1.782,1.782,0,0,0-.694.138,1.8,1.8,0,0,0-.588.391,1.825,1.825,0,0,0-.394.588,1.824,1.824,0,0,0-.138.694v6a1.817,1.817,0,0,0,.532,1.282,1.815,1.815,0,0,0,1.282.53h2.266v8.994h9.143v-8.994h2.266a1.815,1.815,0,0,0,1.282-.53,1.815,1.815,0,0,0,.53-1.282v-6a1.822,1.822,0,0,0-.136-.694,1.86,1.86,0,0,0-.394-.588,1.8,1.8,0,0,0-.588-.391A1.782,1.782,0,0,0,118.943-146.938Z" id="路径_1119"></path>
        <path fill="#e6e6e6" transform="translate(69.154 151.872)" d="M139.408-96.935a70.31,70.31,0,0,1-12.231-41.687,1.479,1.479,0,0,0-.316-.945,1.48,1.48,0,0,0-.841-.534v-2.593H111.576v2.556h-.2a1.516,1.516,0,0,0-.569.115,1.466,1.466,0,0,0-.48.322,1.471,1.471,0,0,0-.32.48,1.506,1.506,0,0,0-.112.569c0,.035,0,.071,0,.108q1.706,23.79-11.527,42.673a4.081,4.081,0,0,0-.739,2.474l1.579,48.854a4.229,4.229,0,0,0,1.277,2.883,4.225,4.225,0,0,0,2.916,1.2h32.669a4.223,4.223,0,0,0,2.941-1.224,4.22,4.22,0,0,0,1.254-2.928l.608-47.433A8.55,8.55,0,0,0,139.408-96.935Z" id="路径_1122"></path>
        <path fill="#fff" transform="translate(71.976 185.195)" d="M131.415-114.03H102.978a2.936,2.936,0,0,0-1.22.266,2.9,2.9,0,0,0-.995.753,2.919,2.919,0,0,0-.593,1.1,2.921,2.921,0,0,0-.078,1.246l4.3,27.931h24.674l5.218-27.836a2.9,2.9,0,0,0-.043-1.272,2.876,2.876,0,0,0-.58-1.131,2.881,2.881,0,0,0-1.006-.779A2.888,2.888,0,0,0,131.415-114.03Z" id="路径_1125"></path>
        <path fill="#e6e6e6" transform="translate(-20.507 204.931)" d="M20.507-67.589H287.66V-97.053H20.507Z" id="路径_1161"></path>
      </g>
    </g>
    <g transform="translate(291.859 82.176)" id="main">
      <g transform="translate(0 244.511)" id="women">
        <path fill="#dedbdb" transform="translate(-51.619 369.957)" d="M214.928-141.109h-7.307a.964.964,0,0,0-.683.283.971.971,0,0,0-.285.686v3.207a.98.98,0,0,0,.074.37.977.977,0,0,0,.212.316,1,1,0,0,0,.314.21.981.981,0,0,0,.37.074h1.211v4.805h4.885v-4.805h1.211a.967.967,0,0,0,.683-.283.971.971,0,0,0,.285-.686v-3.207a.971.971,0,0,0-.285-.686A.967.967,0,0,0,214.928-141.109Z" id="路径_1170"></path>
        <path fill="#c8c5c5" transform="translate(-50.236 370.518)" d="M212.02-140.626a2.1,2.1,0,0,1-.612,1.479,2.09,2.09,0,0,1-1.477.612,2.09,2.09,0,0,1-1.477-.612,2.086,2.086,0,0,1-.612-1.479" id="路径_1194"></path>
        <path fill="#2867ff" transform="translate(-55.234 372.592)" d="M225.859-114.4a37.556,37.556,0,0,1-6.533-22.268.789.789,0,0,0-.169-.506.8.8,0,0,0-.45-.285v-1.386h-7.716v1.367h-.106a.805.805,0,0,0-.3.061.805.805,0,0,0-.257.173.765.765,0,0,0-.171.257.764.764,0,0,0-.061.3.488.488,0,0,0,0,.056,34.28,34.28,0,0,1-6.159,22.8,2.186,2.186,0,0,0-.394,1.323l.843,26.1a2.255,2.255,0,0,0,.681,1.54,2.257,2.257,0,0,0,1.559.64h17.452a2.268,2.268,0,0,0,1.572-.653,2.26,2.26,0,0,0,.668-1.566l.327-25.338A4.589,4.589,0,0,0,225.859-114.4Z" id="路径_1173"></path>
        <path fill="#ffb7b7" transform="translate(-123.111 280.248)" d="M145.155-176.682l18.3-1.665L175.1-206.629l-20.8-11.647Z" id="路径_1176"></path>
        <path fill="#ffb7b7" transform="translate(-55.166 335.835)" d="M245.163-154.626a10.337,10.337,0,0,0,.7-4.786,10.326,10.326,0,0,0-1.561-4.578,10.3,10.3,0,0,0-3.475-3.365,10.311,10.311,0,0,0-4.626-1.412l-28.416-1.693L203.6-156.548l29.25,8.034a10.329,10.329,0,0,0,7.322-.707A10.332,10.332,0,0,0,245.163-154.626Z" id="路径_1179"></path>
        <path fill="#575a88" transform="translate(-124.466 295.399)" d="M283.952-107.845l-.311-26.106-63.116-10.071L171.9-199.787a15.909,15.909,0,0,0-9.84-5.309,15.922,15.922,0,0,0-10.9,2.472,15.925,15.925,0,0,0-4.809,4.959,15.9,15.9,0,0,0-2.256,6.531,15.92,15.92,0,0,0,.724,6.87,15.9,15.9,0,0,0,3.568,5.917L188.5-128.982Z" id="路径_1182"></path>
        <path fill="#2e2e41" transform="translate(-130.714 354.481)" d="M138.615,126.749h16.636L196.519-59.828,239.27-2.19l24.956,124.778h15.806L276.7-11.339,220.969-154.421h-54.9c-15,27.153-26.772,55.145-13.31,84.019Z" id="路径_1185"></path>
        <path fill="#ffb7b7" transform="translate(-119.311 267.056)" d="M171.717-183.04a23.293,23.293,0,0,0,23.293-23.293,23.293,23.293,0,0,0-23.293-23.29,23.291,23.291,0,0,0-23.293,23.29A23.292,23.292,0,0,0,171.717-183.04Z" id="路径_1188"></path>
        <path fill="#575a88" transform="translate(-127.973 292.769)" d="M159.582-86.47l60.726-1.663-17.834-56.129c11.083-17.767-.071-35.515-15.856-53.261l-12.478-8.319L154.175-207.5a49.013,49.013,0,0,0-13.2,34.144C141.371-146.256,146.172-116.748,159.582-86.47Z" id="路径_1191"></path>
        <path fill="#ffb7b7" transform="translate(-63.101 362.414)" d="M234.23-118.334a10.315,10.315,0,0,0,2.526-4.126,10.327,10.327,0,0,0,.365-4.822,10.318,10.318,0,0,0-1.871-4.461,10.322,10.322,0,0,0-3.7-3.116L206.1-147.6l-9.321,11.146,23.734,18.892a10.322,10.322,0,0,0,7.009,2.23A10.313,10.313,0,0,0,234.23-118.334Z" id="路径_1197"></path>
        <path fill="#2e2e41" transform="translate(-127.36 259.74)" d="M141.5-208.166c0,9.063,5.886,23.1,13.31,29.114,5,4.048,11.6,3.877,14.141-1.663,2.612-5.685,11.611-19.045,27.451-27.451,21.117-11.2-7.489-30.375-27.451-27.451C153.95-233.42,141.5-223.327,141.5-208.166Z" id="路径_1203"></path>
        <path fill="#2e2e41" transform="translate(-128.702 250.063)" d="M156.982-210.966A16.639,16.639,0,0,0,173.621-227.6a16.639,16.639,0,0,0-16.639-16.639A16.639,16.639,0,0,0,140.346-227.6,16.638,16.638,0,0,0,156.982-210.966Z" id="路径_1206"></path>
        <path fill="#2e2e41" transform="translate(-117.745 246.933)" d="M165.16-230.3a16.64,16.64,0,0,0-4.442-11.308,16.627,16.627,0,0,0-10.947-5.266c.413-.032.826-.063,1.248-.063a16.637,16.637,0,0,1,11.764,4.872,16.646,16.646,0,0,1,4.872,11.764,16.646,16.646,0,0,1-4.872,11.764,16.637,16.637,0,0,1-11.764,4.872c-.422,0-.835-.032-1.248-.063a16.619,16.619,0,0,0,10.947-5.268A16.634,16.634,0,0,0,165.16-230.3Z" id="路径_1209"></path>
        <path fill="#2e2e41" transform="translate(-68.777 501.385)" d="M192.09-8.824A4.361,4.361,0,0,0,191.924-7a4.363,4.363,0,0,0,.6,1.73,4.357,4.357,0,0,0,1.256,1.328,4.364,4.364,0,0,0,1.7.692l40.71,7.225a6.707,6.707,0,0,0,4.671-.856,6.7,6.7,0,0,0,2.928-3.735,6.652,6.652,0,0,0-.186-4.55,6.667,6.667,0,0,0-3.069-3.367A62.216,62.216,0,0,1,218.08-28.055c-4.474,4.167-9.476,3.776-14.787.7l-5.633.7Z" id="路径_1212"></path>
        <path fill="#2e2e41" transform="translate(-134.962 501.385)" d="M135.159-8.824A4.361,4.361,0,0,0,134.993-7a4.329,4.329,0,0,0,.6,1.73,4.357,4.357,0,0,0,1.256,1.328,4.364,4.364,0,0,0,1.7.692l40.71,7.225a6.7,6.7,0,0,0,4.669-.856,6.692,6.692,0,0,0,2.93-3.735,6.653,6.653,0,0,0-.186-4.55A6.666,6.666,0,0,0,183.6-8.536a62.216,62.216,0,0,1-22.451-19.519c-4.476,4.167-9.476,3.776-14.787.7l-5.633.7Z" id="路径_1215"></path>
        <path fill="#fff" transform="translate(-52.984 388.436)" d="M205.478-115.391h14.733v-9.822H205.478Z" id="路径_1217"></path>
        <path fill="#575a88" transform="translate(-112.02 299.768)" d="M252.6-61.857l9.982-24.125-54.065-34.086-22.765-70.4a15.931,15.931,0,0,0-6.957-8.752,15.932,15.932,0,0,0-11-2.016,15.9,15.9,0,0,0-6.373,2.669,15.884,15.884,0,0,0-4.641,5.117,15.878,15.878,0,0,0-2.037,6.6,15.932,15.932,0,0,0,.952,6.844l17.46,61.165Z" id="路径_1200"></path>
        <path fill="#ffb7b7" transform="translate(-108.578 278.683)" d="M161.4-209.64c2.067,0,3.743-2.234,3.743-4.991s-1.676-4.991-3.743-4.991-3.743,2.234-3.743,4.991S159.332-209.64,161.4-209.64Z" id="路径_1238"></path>
      </g>
      <g transform="translate(150.273 418.519)" id="Shopping">
        <g transform="translate(230.415 156.714)" id="组_4049">
          <path fill="#2867ff" transform="translate(-44.041 284.101)" d="M57.084-284.1H45.568a1.526,1.526,0,0,0-1.079.447,1.526,1.526,0,0,0-.447,1.079v5.055a1.526,1.526,0,0,0,.447,1.08,1.527,1.527,0,0,0,1.079.447h1.908v7.574h7.7v-7.574h1.908a1.528,1.528,0,0,0,1.08-.447,1.527,1.527,0,0,0,.447-1.08v-5.055a1.527,1.527,0,0,0-.447-1.079A1.526,1.526,0,0,0,57.084-284.1Z" id="路径_2345"></path>
          <path opacity="0.24" fill="#fff" transform="translate(-308.126 95.222)" d="M318.118-93.059a2.826,2.826,0,0,1-.83,2,2.827,2.827,0,0,1-2,.83,2.829,2.829,0,0,1-2-.83,2.833,2.833,0,0,1-.83-2" id="路径_1226"></path>
        </g>
        <path fill="#2867ff" transform="translate(-60.627 238.703)" d="M394.721,30.949,328.167-16.127c22.445-21.865,42.861-53,62.387-88.205L457.11-57.258C430.515-27.054,407.986,2.588,394.721,30.949Z" id="路径_1164"></path>
        <path fill="#fff" transform="translate(-35.399 263.364)" d="M369.512-43.83a19.644,19.644,0,0,0,19.644-19.644,19.644,19.644,0,0,0-19.644-19.644,19.644,19.644,0,0,0-19.644,19.644A19.644,19.644,0,0,0,369.512-43.83Z" id="路径_1167"></path>
        <path fill="#2867ff" transform="translate(-88.252 255.691)" d="M346.182-43.96a70.321,70.321,0,0,1-12.233-41.685,1.47,1.47,0,0,0-.314-.947,1.485,1.485,0,0,0-.843-.534v-2.593H318.348v2.558h-.2a1.5,1.5,0,0,0-.567.112,1.478,1.478,0,0,0-.48.322,1.448,1.448,0,0,0-.32.482,1.455,1.455,0,0,0-.112.567.908.908,0,0,0,0,.108Q318.38-61.776,305.146-42.9a4.1,4.1,0,0,0-.74,2.474l1.581,48.854a4.231,4.231,0,0,0,4.193,4.083h32.669a4.232,4.232,0,0,0,4.2-4.154l.608-47.433A8.575,8.575,0,0,0,346.182-43.96Z" id="路径_1223"></path>
        <path fill="#fff" transform="translate(-85.43 289.014)" d="M338.187-61.055H309.752a2.928,2.928,0,0,0-1.22.266,2.91,2.91,0,0,0-1,.753,2.9,2.9,0,0,0-.59,1.1,2.922,2.922,0,0,0-.08,1.246l4.3,27.931h24.672l5.22-27.836a2.9,2.9,0,0,0-.043-1.272,2.9,2.9,0,0,0-.58-1.131,2.9,2.9,0,0,0-1.006-.779A2.93,2.93,0,0,0,338.187-61.055Z" id="路径_1229"></path>
        <path fill="#2867ff" transform="translate(-137.958 253.306)" d="M343.169,16.269H261.648c5.7-30.814,4.388-68.025,0-108.04h81.521C338.9-51.756,337.622-14.545,343.169,16.269Z" id="路径_1232"></path>
        <path fill="#fff" transform="translate(-126.342 270.202)" d="M291.284-37.95a19.643,19.643,0,0,0,19.642-19.642,19.644,19.644,0,0,0-19.642-19.644A19.644,19.644,0,0,0,271.64-57.593,19.644,19.644,0,0,0,291.284-37.95Z" id="路径_1235"></path>
        <path fill="#3e3d55" transform="translate(-197.304 169.595)" d="M571.236,107.116H312.247L257.4-152.146H210.6v-11.632h56.234L321.677,95.481H571.236Z" id="路径_1241"></path>
        <path fill="#3e3d55" transform="translate(-135.658 313.882)" d="M288.556,10.193a24.929,24.929,0,0,0,24.928-24.93,24.928,24.928,0,0,0-24.928-24.927,24.928,24.928,0,0,0-24.93,24.927A24.929,24.929,0,0,0,288.556,10.193Z" id="路径_1244"></path>
        <path fill="#3e3d55" transform="translate(-35.596 313.882)" d="M374.629,10.193a24.928,24.928,0,0,0,24.927-24.93,24.928,24.928,0,0,0-24.927-24.927A24.928,24.928,0,0,0,349.7-14.736,24.929,24.929,0,0,0,374.629,10.193Z" id="路径_1247"></path>
        <g clip-path="url(#clip-path-5)" transform="translate(72.769 51.518)" id="组_3435">
          <g clip-path="url(#clip-path-2)" transform="translate(-2731.495 -9675.933)" id="组_3434">
            <path fill="#3e3d55" transform="translate(2487.582 9812.765)" d="M233.1-147.645H604.838V93.694H233.1Z" id="路径_1248"></path>
          </g>
        </g>
        <path fill="#3e3d55" transform="translate(-130.75 194.912)" d="M296.964,75.617,267.848-141.46l3.278-.541L300.243,75.076Z" id="路径_1253"></path>
        <path fill="#3e3d55" transform="translate(-29.829 194.914)" d="M357.942,73.947l-3.283-.53L382.925-142l3.281.532Z" id="路径_1256"></path>
        <path fill="#3e3d55" transform="translate(-71.318 195.057)" d="M318.971,75.2h3.324V-141.876h-3.324Z" id="路径_1258"></path>
        <path fill="#3e3d55" transform="translate(-156.209 226.327)" d="M245.957-114.978l-.009,3.324,321.746.779.006-3.324Z" id="路径_1261"></path>
        <path fill="#3e3d55" transform="translate(-147.399 281.524)" d="M536.185-67.5,253.527-65.565l.022,3.324,282.66-1.933Z" id="路径_1264"></path>
        <path fill="#3e3d55" transform="translate(-153.886 229.623)" d="M553.485-67.5,253.527-65.565l.022,3.324,299.96-1.933Z" id="路径_2342"></path>
        <g clip-path="url(#clip-path-7)" id="组_3446">
          <g clip-path="url(#clip-path-2)" transform="translate(-2658.726 -9624.414)" id="组_3445">
            <path fill="#3e3d55" transform="translate(2448.463 9785.07)" d="M199.451-171.468h58.187V-129.9H199.451Z" id="路径_1265"></path>
          </g>
        </g>
      </g>
      <g transform="translate(6.571)" id="icon">
        <path fill-rule="evenodd" fill="#ffb906" transform="translate(192.159 626.22)" d="M483.632-7.736a61.632,61.632,0,0,0,61.632-61.632A61.632,61.632,0,0,0,483.632-131,61.632,61.632,0,0,0,422-69.368,61.632,61.632,0,0,0,483.632-7.736Z" id="路径_1270"></path>
        <path fill="#fff" transform="translate(210.759 643.658)" d="M470.622-71.989h0a5.749,5.749,0,0,1,5.757-5.741h3.838a5.749,5.749,0,0,1,5.757,5.741h7.676a1.916,1.916,0,0,1,1.919,1.913,1.916,1.916,0,0,1-1.919,1.914h-7.676a5.749,5.749,0,0,1-5.757,5.74h-3.838a5.749,5.749,0,0,1-5.757-5.74h-30.7A1.916,1.916,0,0,1,438-70.076a1.916,1.916,0,0,1,1.919-1.913Zm5.757-1.914h0a1.916,1.916,0,0,0-1.919,1.914h0v3.827h0a1.916,1.916,0,0,0,1.919,1.913h3.838a1.916,1.916,0,0,0,1.919-1.913v-3.827h0a1.916,1.916,0,0,0-1.919-1.914ZM468.7-110.26h0A5.749,5.749,0,0,1,474.46-116H478.3a5.749,5.749,0,0,1,5.757,5.74h9.595a1.916,1.916,0,0,1,1.919,1.914,1.916,1.916,0,0,1-1.919,1.913h-9.595a5.749,5.749,0,0,1-5.757,5.741H474.46a5.749,5.749,0,0,1-5.757-5.741H439.919A1.916,1.916,0,0,1,438-108.346a1.916,1.916,0,0,1,1.919-1.914Zm5.757-1.913h0a1.916,1.916,0,0,0-1.919,1.913h0v3.827h0a1.916,1.916,0,0,0,1.919,1.914H478.3a1.916,1.916,0,0,0,1.919-1.914v-3.827h0a1.916,1.916,0,0,0-1.919-1.913H474.46ZM447.595-91.124h0a5.748,5.748,0,0,1,5.757-5.74h3.838a5.749,5.749,0,0,1,5.757,5.74h30.7a1.916,1.916,0,0,1,1.919,1.913A1.916,1.916,0,0,1,493.65-87.3h-30.7a5.749,5.749,0,0,1-5.757,5.74h-3.838a5.749,5.749,0,0,1-5.757-5.74h-7.676A1.916,1.916,0,0,1,438-89.211a1.916,1.916,0,0,1,1.919-1.913Zm5.757-1.914h0a1.916,1.916,0,0,0-1.919,1.914h0V-87.3h0a1.916,1.916,0,0,0,1.919,1.913h3.838a1.916,1.916,0,0,0,1.919-1.913v-3.827h0a1.916,1.916,0,0,0-1.919-1.914Z" id="路径_1273"></path>
        <path fill-rule="evenodd" fill="#ff5a00" transform="translate(-138 360)" d="M181.251-273.5A43.251,43.251,0,0,0,224.5-316.749,43.251,43.251,0,0,0,181.251-360,43.251,43.251,0,0,0,138-316.749,43.251,43.251,0,0,0,181.251-273.5Z" id="路径_1276"></path>
        <path fill="#fff" transform="translate(-123.942 370.807)" d="M171.172-334.745l.537,1.072h0a.56.56,0,0,0,.824.333.757.757,0,0,0,.314-.491l.331-1.248a18.357,18.357,0,0,1,2.27-4.826c.015-.034.029-.067.043-.1l.024,0a12.451,12.451,0,0,1,1.748-2.045v-.014h0a2.764,2.764,0,0,0,.723-2.25h0a3.548,3.548,0,0,1,.512,1.867h0a3.653,3.653,0,0,1-.287,1.434,26.629,26.629,0,0,0-.948,7.138,15.5,15.5,0,0,0,1.072,5.46,11.464,11.464,0,0,1,1.628,5.867c0,7.1-6.632,12.858-14.812,12.858-7.5,0-13.706-4.845-14.679-11.128l-.037.065h0a28.1,28.1,0,0,1-.343-4.407c0-7.923,3.23-14.623,7.672-16.832a25.073,25.073,0,0,0-2.235,10.148,2.489,2.489,0,0,0,2.216,2.562c.046,0,.093,0,.139-.006q3.053-.021,3.092-5.342h0q-.022-.464-.022-.928c0-7.183,3.873-13.244,9.171-15.147h0a18.885,18.885,0,0,0-1.271,6.88h0a18.4,18.4,0,0,0,2.318,9.078Z" id="路径_1279"></path>
      </g>
    </g>
  </g>
</svg>
